<?xml version="1.0" encoding="utf-8"?>
<!-- Generator: Adobe Illustrator 16.0.4, SVG Export Plug-In . SVG Version: 6.00 Build 0)  -->
<!DOCTYPE svg PUBLIC "-//W3C//DTD SVG 1.1//EN" "http://www.w3.org/Graphics/SVG/1.1/DTD/svg11.dtd">
<svg version="1.1" id="Layer_1" xmlns="http://www.w3.org/2000/svg" xmlns:xlink="http://www.w3.org/1999/xlink" x="0px" y="0px"
	 width="500.0px" height="500.0px" viewBox="0 0 500 500" enable-background="new 0 0 500 500"
	 xml:space="preserve">

<g transform="translate(250 250)">
	<!-- torso -->
	<g transform="scale(.7 1)">
		<polygon fill="#3B7EA1" points="-50,-50 50,-50 -50,50 "/>
		<polygon fill="#003262" points="-50,50 50,-50 50,50"/>
	</g>

	<!-- head -->
	<g transform="translate(0 -100)">
		<g transform="rotate(30)">
			<g transform="scale(.5 .5)">
				<polygon fill="#FDB515" points="-50,-50 50,-50 -50,50 "/>
				<polygon fill="#C4820E" points="-50,50 50,-50 50,50"/>
			</g>
		</g>
	</g>

	<!-- left leg -->
	<g transform="translate(-48 87)">
		<g transform="rotate(45)">
			<g transform="scale(.2 .6)">
				<polygon fill="#3B7EA1" points="-50,-50 50,-50 -50,50 "/>
				<polygon fill="#003262" points="-50,50 50,-50 50,50"/>
			</g>
		</g>
		<g transform="translate(-27.5 65)">
			<g transform="scale(.2 .6)">
				<polygon fill="#FDB515" points="-50,-50 50,-50 -50,50 "/>
				<polygon fill="#C4820E" points="-50,50 50,-50 50,50"/>
			</g>
		</g>
	</g>

	<!-- right leg -->
	<g transform="translate(25 90)">
		<g transform="scale(.2 .6)">
			<polygon fill="#3B7EA1" points="-50,-50 50,-50 -50,50 "/>
			<polygon fill="#003262" points="-50,50 50,-50 50,50"/>
		</g>
		<g transform="translate(27.5 65)">
			<g transform="rotate(-45)">
				<g transform="scale(.2 .6)">
					<polygon fill="#FDB515" points="-50,-50 50,-50 -50,50 "/>
					<polygon fill="#C4820E" points="-50,50 50,-50 50,50"/>
				</g>
			</g>
		</g>
	</g>

	<g transform="translate(-90 -40)">
		<g transform="scale(.6 .2)">
			<polygon fill="#FDB515" points="-50,-50 50,-50 -50,50 "/>
			<polygon fill="#C4820E" points="-50,50 50,-50 50,50"/>
		</g>
		<g transform="translate(-42 -48)">
			<g transform="rotate(95)">
				<g transform="scale(.6 .2)">
					<polygon fill="#FDB515" points="-50,-50 50,-50 -50,50 "/>
					<polygon fill="#C4820E" points="-50,50 50,-50 50,50"/>
				</g>
			</g>
		</g>
	</g>


	<g transform="translate(90 -40)">
		<g transform="scale(.6 .2)">
			<polygon fill="#FDB515" points="-50,-50 50,-50 -50,50 "/>
			<polygon fill="#C4820E" points="-50,50 50,-50 50,50"/>
		</g>
		<g transform="translate(42 -48)">
			<g transform="rotate(85)">
				<g transform="scale(.6 .2)">
					<polygon fill="#FDB515" points="-50,-50 50,-50 -50,50 "/>
					<polygon fill="#C4820E" points="-50,50 50,-50 50,50"/>
				</g>
			</g>
		</g>
	</g>

</g>


</svg>
